<svg width="580" height="525" viewBox="0 0 580 525" fill="none" xmlns="http://www.w3.org/2000/svg">
<g id="Group 19">
<g id="Group 26">
<g id="Rectangle Copy 4" filter="url(#filter0_d_0_882)">
<rect x="20" y="10" width="260" height="235" rx="4" fill="white"/>
</g>
<g id="Group 23">
<g id="Group 2">
<rect id="Rectangle" x="36.2078" y="26.2069" width="230.286" height="202.586" fill="#FAFAFA" stroke="#E5E9EA"/>
<rect id="Rectangle_2" x="36.2078" y="127.5" width="230.286" height="0.791352" fill="#E5E9EA"/>
<rect id="Rectangle_3" x="36.2078" y="146.492" width="230.286" height="0.791352" fill="#E5E9EA"/>
<rect id="Rectangle_4" x="36.2078" y="165.485" width="230.286" height="0.791352" fill="#E5E9EA"/>
<rect id="Rectangle_5" x="36.2078" y="184.477" width="230.286" height="0.791352" fill="#E5E9EA"/>
<rect id="Rectangle_6" x="36.2078" y="51.5302" width="230.286" height="0.791352" fill="#E5E9EA"/>
<rect id="Rectangle_7" x="36.2078" y="32.5377" width="230.286" height="0.791352" fill="#E5E9EA"/>
<rect id="Rectangle_8" x="36.2078" y="70.5226" width="230.286" height="0.791352" fill="#E5E9EA"/>
<rect id="Rectangle_9" x="36.2078" y="89.5151" width="230.286" height="0.791352" fill="#E5E9EA"/>
<rect id="Rectangle_10" x="36.2078" y="108.508" width="230.286" height="0.791352" fill="#E5E9EA"/>
<rect id="Rectangle_11" x="36.2078" y="203.47" width="230.286" height="0.791352" fill="#E5E9EA"/>
<rect id="Rectangle_12" x="36.2078" y="222.462" width="230.286" height="0.791352" fill="#E5E9EA"/>
</g>
<g id="Group 7">
<path id="Rectangle_13" d="M42.2856 127.5H73.3506V173.147C73.3506 175.908 71.112 178.147 68.3506 178.147H47.2856C44.5242 178.147 42.2856 175.908 42.2856 173.147V127.5Z" fill="#242D52"/>
<path id="Rectangle Copy 6" d="M42.2856 127.5H73.3506V160.485C73.3506 163.246 71.112 165.485 68.3506 165.485H47.2856C44.5242 165.485 42.2856 163.246 42.2856 160.485V127.5Z" fill="#F3603C"/>
</g>
<g id="Group 6">
<path id="Rectangle Copy" d="M89.5585 127.234H120.623V92.6581C120.623 89.8967 118.385 87.6581 115.623 87.6581H94.5585C91.797 87.6581 89.5585 89.8967 89.5585 92.6581V127.234Z" fill="#F3603C"/>
<path id="Rectangle Copy 7" d="M89.5585 127.234H120.623V179.224C120.623 181.986 118.385 184.224 115.623 184.224H94.5585C91.797 184.224 89.5585 181.986 89.5585 179.224V127.234Z" fill="#242D52"/>
</g>
<g id="Group 5">
<path id="Rectangle Copy 2" d="M182.078 127.5H213.143V56.1926C213.143 53.4312 210.904 51.1926 208.143 51.1926H187.078C184.316 51.1926 182.078 53.4312 182.078 56.1926V127.5Z" fill="#242D52"/>
<path id="Rectangle Copy 8" d="M182.078 127.5H213.143V75.2695C213.143 72.508 210.904 70.2695 208.143 70.2695H187.078C184.316 70.2695 182.078 72.508 182.078 75.2695V127.5Z" fill="#F3603C"/>
</g>
<g id="Group">
<path id="Rectangle Copy 9" d="M229.351 127.5H260.416V185.977C260.416 188.738 258.177 190.977 255.416 190.977H234.351C231.589 190.977 229.351 188.738 229.351 185.977V127.5Z" fill="#242D52"/>
<path id="Rectangle Copy 3" d="M229.351 127.5H260.416V173.282C260.416 176.043 258.177 178.282 255.416 178.282H234.351C231.589 178.282 229.351 176.043 229.351 173.282V127.5Z" fill="#F3603C"/>
</g>
<g id="Group 8">
<g id="Rectangle Copy 11">
<path id="Rectangle Copy 5" d="M135.48 127.5H166.545V217.716C166.545 220.477 164.307 222.716 161.545 222.716H140.48C137.719 222.716 135.48 220.477 135.48 217.716V127.5Z" fill="#F3603C"/>
</g>
<path id="Rectangle Copy 10" d="M135.48 127.5H166.545V160.586C166.545 163.348 164.307 165.586 161.545 165.586H140.48C137.719 165.586 135.48 163.348 135.48 160.586V127.5Z" fill="#242D52"/>
</g>
</g>
</g>
<g id="Group 28">
<g id="Rectangle Copy 4_2" filter="url(#filter1_d_0_882)">
<rect x="300" y="10" width="260" height="235" rx="4" fill="white"/>
</g>
<g id="Group 24">
<path id="Oval" d="M491.377 127.5C491.377 161.207 464.05 188.534 430.338 188.534C396.626 188.534 369.299 161.207 369.299 127.5C369.299 93.7926 396.626 66.4655 430.338 66.4655C464.05 66.4655 491.377 93.7926 491.377 127.5Z" stroke="white" stroke-width="40"/>
<path id="Oval Copy" d="M430.338 46.4655C452.716 46.4655 472.975 55.5353 487.64 70.1992L473.499 84.3419C484.567 95.409 491.377 110.64 491.377 127.5H511.377C511.377 149.877 502.306 170.136 487.64 184.801L473.499 170.658C462.431 181.725 447.199 188.534 430.338 188.534V208.534C407.96 208.534 387.7 199.465 373.035 184.801L387.177 170.658C376.109 159.591 369.299 144.36 369.299 127.5H349.299C349.299 105.123 358.37 84.8636 373.035 70.1992L387.177 84.3419C398.244 73.2752 413.477 66.4655 430.338 66.4655V46.4655Z" stroke="#F3603C" stroke-width="40" stroke-dasharray="502"/>
<path id="Oval Copy 2" d="M430.338 46.4655C452.716 46.4655 472.975 55.5353 487.64 70.1992L473.499 84.3419C484.567 95.409 491.377 110.64 491.377 127.5H511.377C511.377 149.877 502.306 170.136 487.64 184.801L473.499 170.658C462.431 181.725 447.199 188.534 430.338 188.534V208.534C407.96 208.534 387.7 199.465 373.035 184.801L387.177 170.658C376.109 159.591 369.299 144.36 369.299 127.5H349.299C349.299 105.123 358.37 84.8636 373.035 70.1992L387.177 84.3419C398.244 73.2752 413.477 66.4655 430.338 66.4655V46.4655Z" stroke="#242D52" stroke-width="40" stroke-dasharray="340"/>
</g>
</g>
<g id="Group 25">
<g id="Rectangle Copy 4_3" filter="url(#filter2_d_0_882)">
<rect x="160" y="260" width="260" height="235" rx="4" fill="white"/>
</g>
<g id="Group 12">
<rect id="Rectangle_14" x="176.208" y="400.46" width="106.026" height="78.3333" rx="4" fill="#F3603C"/>
<g id="Group 11">
<path id="+1.5%" fill-rule="evenodd" clip-rule="evenodd" d="M237.93 452.899C237.33 453.506 236.601 453.809 235.744 453.809C234.887 453.809 234.156 453.506 233.553 452.899C232.949 452.293 232.648 451.557 232.648 450.694C232.648 449.843 232.951 449.114 233.558 448.507C234.164 447.901 234.893 447.597 235.744 447.597C236.601 447.597 237.33 447.901 237.93 448.507C238.53 449.114 238.83 449.843 238.83 450.694C238.83 451.551 238.53 452.286 237.93 452.899ZM211.515 461.911V447.805H209.359L205.926 450.802V453.176L209.24 450.199V461.911H211.515ZM199.251 459.873V455.966H203.149V454.185H199.251V450.278H197.471V454.185H193.563V455.966H197.471V459.873H199.251ZM218.937 461.703C218.663 461.974 218.335 462.109 217.953 462.109C217.577 462.109 217.25 461.972 216.973 461.698C216.696 461.425 216.558 461.1 216.558 460.724C216.558 460.341 216.696 460.013 216.973 459.74C217.25 459.466 217.577 459.329 217.953 459.329C218.335 459.329 218.663 459.466 218.937 459.74C219.211 460.013 219.347 460.341 219.347 460.724C219.347 461.106 219.211 461.433 218.937 461.703ZM226.537 462.099C227.988 462.099 229.16 461.655 230.053 460.768C230.947 459.881 231.394 458.716 231.394 457.272C231.394 455.834 230.955 454.728 230.078 453.953C229.201 453.178 227.879 452.791 226.111 452.791H224.568L224.875 449.872H230.751V447.815H222.886L222.154 454.729H225.785C227.994 454.729 229.099 455.603 229.099 457.351C229.099 458.142 228.866 458.78 228.401 459.265C227.936 459.75 227.298 459.992 226.487 459.992C225.782 459.992 225.18 459.787 224.682 459.379C224.184 458.97 223.935 458.356 223.935 457.539C223.935 457.374 223.958 457.136 224.004 456.826L221.719 456.965C221.686 457.249 221.67 457.486 221.67 457.677C221.67 458.594 221.897 459.393 222.352 460.076C222.807 460.759 223.397 461.266 224.123 461.599C224.848 461.932 225.653 462.099 226.537 462.099ZM236.832 461.921L244.291 447.785H242.312L234.873 461.921H236.832ZM234.656 451.787C234.959 452.087 235.322 452.237 235.744 452.237C236.179 452.237 236.544 452.087 236.837 451.787C237.13 451.487 237.277 451.122 237.277 450.694C237.277 450.271 237.129 449.912 236.832 449.615C236.535 449.319 236.173 449.17 235.744 449.17C235.322 449.17 234.959 449.317 234.656 449.61C234.352 449.904 234.201 450.265 234.201 450.694C234.201 451.122 234.352 451.487 234.656 451.787ZM243.529 462.079C244.38 462.079 245.104 461.776 245.701 461.169C246.297 460.562 246.596 459.834 246.596 458.983C246.596 458.126 246.296 457.395 245.696 456.792C245.096 456.188 244.373 455.887 243.529 455.887C242.672 455.887 241.94 456.188 241.333 456.792C240.726 457.395 240.423 458.126 240.423 458.983C240.423 459.84 240.725 460.571 241.328 461.174C241.932 461.777 242.665 462.079 243.529 462.079ZM242.431 460.066C242.728 460.366 243.094 460.516 243.529 460.516C243.951 460.516 244.314 460.366 244.617 460.066C244.921 459.766 245.072 459.405 245.072 458.983C245.072 458.561 244.919 458.198 244.612 457.895C244.306 457.591 243.945 457.44 243.529 457.44C243.094 457.44 242.728 457.588 242.431 457.885C242.134 458.182 241.986 458.548 241.986 458.983C241.986 459.405 242.134 459.766 242.431 460.066Z" fill="white"/>
</g>
</g>
<g id="Group 12 Copy">
<rect id="Rectangle_15" x="297.766" y="400.46" width="106.026" height="78.3333" rx="4" fill="#FAFAFA"/>
<g id="Group 11_2">
<path id="88.24%" fill-rule="evenodd" clip-rule="evenodd" d="M352.695 461.911V459.853H346.186L350.331 455.56C350.997 454.868 351.485 454.218 351.795 453.612C352.105 453.005 352.26 452.342 352.26 451.623C352.26 450.37 351.841 449.384 351.003 448.666C350.166 447.947 349.088 447.587 347.769 447.587C346.364 447.587 345.249 447.98 344.425 448.765C343.601 449.549 343.188 450.674 343.188 452.138V452.929L345.454 453.147V452.108C345.454 451.191 345.662 450.524 346.077 450.105C346.493 449.686 347.06 449.477 347.779 449.477C348.464 449.477 349.008 449.666 349.411 450.046C349.813 450.425 350.014 450.954 350.014 451.633C350.014 452.51 349.543 453.434 348.6 454.403L342.961 460.19V461.911H352.695ZM319.87 462.099C320.806 462.099 321.647 461.931 322.393 461.594C323.138 461.251 323.73 460.75 324.168 460.091C324.607 459.431 324.826 458.67 324.826 457.806C324.826 456.955 324.608 456.213 324.173 455.58C323.738 454.947 323.148 454.466 322.402 454.136C322.93 453.826 323.345 453.422 323.649 452.924C323.952 452.426 324.104 451.871 324.104 451.257C324.104 450.189 323.703 449.314 322.902 448.631C322.101 447.949 321.09 447.607 319.87 447.607C318.63 447.607 317.608 447.947 316.803 448.626C315.999 449.305 315.596 450.182 315.596 451.257C315.596 451.871 315.751 452.426 316.061 452.924C316.371 453.422 316.797 453.826 317.337 454.136C316.579 454.459 315.984 454.937 315.552 455.57C315.12 456.203 314.904 456.949 314.904 457.806C314.904 458.67 315.123 459.431 315.562 460.091C316 460.75 316.594 461.25 317.342 461.589C318.091 461.929 318.933 462.099 319.87 462.099ZM319.87 453.434C319.263 453.434 318.752 453.237 318.337 452.845C317.921 452.453 317.713 451.966 317.713 451.386C317.713 450.819 317.921 450.342 318.337 449.957C318.752 449.571 319.263 449.378 319.87 449.378C320.47 449.378 320.978 449.571 321.393 449.957C321.809 450.342 322.017 450.819 322.017 451.386C322.017 451.96 321.807 452.444 321.388 452.84C320.97 453.236 320.463 453.434 319.87 453.434ZM317.951 459.359C318.459 459.814 319.098 460.041 319.87 460.041C320.628 460.041 321.261 459.812 321.769 459.354C322.277 458.896 322.531 458.291 322.531 457.539C322.531 456.794 322.277 456.197 321.769 455.748C321.261 455.3 320.628 455.076 319.87 455.076C319.098 455.076 318.459 455.3 317.951 455.748C317.443 456.197 317.189 456.794 317.189 457.539C317.189 458.297 317.443 458.904 317.951 459.359ZM330.947 462.099C331.883 462.099 332.724 461.931 333.469 461.594C334.215 461.251 334.807 460.75 335.245 460.091C335.684 459.431 335.903 458.67 335.903 457.806C335.903 456.955 335.685 456.213 335.25 455.58C334.815 454.947 334.225 454.466 333.479 454.136C334.007 453.826 334.422 453.422 334.726 452.924C335.029 452.426 335.181 451.871 335.181 451.257C335.181 450.189 334.78 449.314 333.979 448.631C333.178 447.949 332.167 447.607 330.947 447.607C329.707 447.607 328.685 447.947 327.88 448.626C327.076 449.305 326.673 450.182 326.673 451.257C326.673 451.871 326.828 452.426 327.138 452.924C327.448 453.422 327.874 453.826 328.414 454.136C327.656 454.459 327.061 454.937 326.629 455.57C326.197 456.203 325.981 456.949 325.981 457.806C325.981 458.67 326.2 459.431 326.639 460.091C327.077 460.75 327.671 461.25 328.419 461.589C329.168 461.929 330.01 462.099 330.947 462.099ZM329.414 452.845C329.829 453.237 330.34 453.434 330.947 453.434C331.54 453.434 332.047 453.236 332.465 452.84C332.884 452.444 333.094 451.96 333.094 451.386C333.094 450.819 332.886 450.342 332.47 449.957C332.055 449.571 331.547 449.378 330.947 449.378C330.34 449.378 329.829 449.571 329.414 449.957C328.998 450.342 328.79 450.819 328.79 451.386C328.79 451.966 328.998 452.453 329.414 452.845ZM330.947 460.041C330.175 460.041 329.536 459.814 329.028 459.359C328.52 458.904 328.266 458.297 328.266 457.539C328.266 456.794 328.52 456.197 329.028 455.748C329.536 455.3 330.175 455.076 330.947 455.076C331.705 455.076 332.338 455.3 332.846 455.748C333.354 456.197 333.608 456.794 333.608 457.539C333.608 458.291 333.354 458.896 332.846 459.354C332.338 459.812 331.705 460.041 330.947 460.041ZM340.367 461.703C340.093 461.974 339.765 462.109 339.382 462.109C339.007 462.109 338.68 461.972 338.403 461.698C338.126 461.425 337.988 461.1 337.988 460.724C337.988 460.341 338.126 460.013 338.403 459.74C338.68 459.466 339.007 459.329 339.382 459.329C339.765 459.329 340.093 459.466 340.367 459.74C340.64 460.013 340.777 460.341 340.777 460.724C340.777 461.106 340.64 461.433 340.367 461.703ZM362.397 459.151V461.911H360.122V459.151H353.494V457.094L358.925 447.805H362.397V457.103H364.336V459.151H362.397ZM360.122 457.103H355.71L360.122 449.269V457.103ZM370.437 452.899C369.837 453.506 369.108 453.809 368.251 453.809C367.393 453.809 366.663 453.506 366.059 452.899C365.456 452.293 365.154 451.557 365.154 450.694C365.154 449.843 365.458 449.114 366.064 448.507C366.671 447.901 367.4 447.597 368.251 447.597C369.108 447.597 369.837 447.901 370.437 448.507C371.037 449.114 371.337 449.843 371.337 450.694C371.337 451.551 371.037 452.286 370.437 452.899ZM369.339 461.921L376.798 447.785H374.819L367.38 461.921H369.339ZM367.162 451.787C367.466 452.087 367.829 452.237 368.251 452.237C368.686 452.237 369.05 452.087 369.344 451.787C369.637 451.487 369.784 451.122 369.784 450.694C369.784 450.271 369.636 449.912 369.339 449.615C369.042 449.319 368.679 449.17 368.251 449.17C367.829 449.17 367.466 449.317 367.162 449.61C366.859 449.904 366.707 450.265 366.707 450.694C366.707 451.122 366.859 451.487 367.162 451.787ZM376.036 462.079C376.887 462.079 377.611 461.776 378.207 461.169C378.804 460.562 379.103 459.834 379.103 458.983C379.103 458.126 378.803 457.395 378.202 456.792C377.602 456.188 376.88 455.887 376.036 455.887C375.179 455.887 374.447 456.188 373.84 456.792C373.233 457.395 372.93 458.126 372.93 458.983C372.93 459.84 373.231 460.571 373.835 461.174C374.438 461.777 375.172 462.079 376.036 462.079ZM374.938 460.066C375.235 460.366 375.601 460.516 376.036 460.516C376.458 460.516 376.821 460.366 377.124 460.066C377.428 459.766 377.579 459.405 377.579 458.983C377.579 458.561 377.426 458.198 377.119 457.895C376.813 457.591 376.451 457.44 376.036 457.44C375.601 457.44 375.235 457.588 374.938 457.885C374.641 458.182 374.493 458.548 374.493 458.983C374.493 459.405 374.641 459.766 374.938 460.066Z" fill="#1E272E"/>
</g>
</g>
<g id="Group 13">
<rect id="Rectangle Copy 14" x="176.208" y="276.207" width="227.584" height="108.046" rx="4" fill="#FAFAFA"/>
<path id="89.74%" fill-rule="evenodd" clip-rule="evenodd" d="M311.631 341.393C310.351 342.688 308.796 343.335 306.967 343.335C305.138 343.335 303.58 342.688 302.293 341.393C301.006 340.099 300.362 338.53 300.362 336.687C300.362 334.872 301.009 333.318 302.304 332.024C303.598 330.729 305.153 330.082 306.967 330.082C308.796 330.082 310.351 330.729 311.631 332.024C312.912 333.318 313.552 334.872 313.552 336.687C313.552 338.516 312.912 340.085 311.631 341.393ZM210.375 359.943C208.785 360.66 206.991 361.019 204.993 361.019C202.996 361.019 201.198 360.656 199.601 359.932C198.005 359.207 196.738 358.142 195.803 356.735C194.867 355.328 194.399 353.703 194.399 351.86C194.399 350.031 194.86 348.442 195.782 347.091C196.703 345.74 197.973 344.72 199.591 344.031C198.437 343.37 197.53 342.508 196.868 341.446C196.207 340.384 195.877 339.199 195.877 337.89C195.877 335.597 196.735 333.726 198.451 332.277C200.168 330.828 202.348 330.103 204.993 330.103C207.596 330.103 209.752 330.831 211.462 332.287C213.171 333.743 214.026 335.611 214.026 337.89C214.026 339.199 213.702 340.384 213.055 341.446C212.408 342.508 211.522 343.37 210.396 344.031C211.986 344.734 213.245 345.761 214.174 347.112C215.102 348.463 215.566 350.045 215.566 351.86C215.566 353.703 215.099 355.328 214.163 356.735C213.227 358.142 211.965 359.211 210.375 359.943ZM201.722 341.277C202.609 342.114 203.699 342.533 204.993 342.533C206.26 342.533 207.339 342.111 208.233 341.267C209.126 340.422 209.573 339.388 209.573 338.164C209.573 336.955 209.13 335.938 208.243 335.115C207.357 334.292 206.274 333.881 204.993 333.881C203.699 333.881 202.609 334.292 201.722 335.115C200.836 335.938 200.393 336.955 200.393 338.164C200.393 339.403 200.836 340.44 201.722 341.277ZM204.993 356.629C203.347 356.629 201.983 356.144 200.899 355.173C199.816 354.203 199.274 352.908 199.274 351.29C199.274 349.701 199.816 348.427 200.899 347.471C201.983 346.514 203.347 346.036 204.993 346.036C206.611 346.036 207.962 346.514 209.045 347.471C210.129 348.427 210.67 349.701 210.67 351.29C210.67 352.894 210.129 354.185 209.045 355.163C207.962 356.141 206.611 356.629 204.993 356.629ZM236.459 347.745L226.73 360.618H221.096L229.115 350.299C228.51 350.425 227.877 350.488 227.216 350.488C225.542 350.488 223.98 350.095 222.531 349.307C221.082 348.519 219.896 347.362 218.975 345.835C218.053 344.309 217.585 342.561 217.571 340.591C217.557 338.58 218.039 336.768 219.017 335.157C219.995 333.547 221.303 332.308 222.942 331.443C224.581 330.578 226.379 330.145 228.334 330.145C230.332 330.145 232.151 330.582 233.79 331.454C235.429 332.326 236.727 333.554 237.683 335.136C238.64 336.719 239.118 338.495 239.118 340.465C239.118 342.927 238.232 345.353 236.459 347.745ZM228.461 346.859C226.66 346.859 225.186 346.293 224.04 345.16C222.893 344.028 222.313 342.54 222.299 340.697C222.285 338.882 222.861 337.408 224.029 336.276C225.197 335.143 226.674 334.577 228.461 334.577C230.276 334.577 231.739 335.126 232.851 336.223C233.962 337.32 234.518 338.798 234.518 340.655C234.518 342.413 233.952 343.887 232.819 345.076C231.686 346.264 230.234 346.859 228.461 346.859ZM248.225 360.175C247.641 360.751 246.941 361.04 246.125 361.04C245.323 361.04 244.627 360.748 244.036 360.164C243.445 359.58 243.149 358.887 243.149 358.085C243.149 357.27 243.445 356.57 244.036 355.986C244.627 355.402 245.323 355.11 246.125 355.11C246.941 355.11 247.641 355.402 248.225 355.986C248.809 356.57 249.101 357.27 249.101 358.085C249.101 358.901 248.809 359.598 248.225 360.175ZM260.349 360.618L274.51 334.387V330.525H253.596V334.894H269.044L254.82 360.618H260.349ZM294.727 354.73V360.618H289.873V354.73H275.734V350.341L287.32 330.525H294.727V350.362H298.864V354.73H294.727ZM289.873 350.362H280.461L289.873 333.649V350.362ZM309.289 360.639L325.201 330.483H320.98L305.11 360.639H309.289ZM304.646 339.019C305.293 339.659 306.067 339.979 306.967 339.979C307.896 339.979 308.673 339.659 309.299 339.019C309.926 338.379 310.239 337.602 310.239 336.687C310.239 335.787 309.922 335.02 309.289 334.387C308.656 333.754 307.882 333.437 306.967 333.437C306.067 333.437 305.293 333.751 304.646 334.377C303.999 335.003 303.675 335.773 303.675 336.687C303.675 337.602 303.999 338.379 304.646 339.019ZM323.576 360.977C325.391 360.977 326.935 360.329 328.209 359.035C329.482 357.741 330.118 356.186 330.118 354.371C330.118 352.542 329.478 350.984 328.198 349.697C326.918 348.41 325.377 347.766 323.576 347.766C321.747 347.766 320.186 348.41 318.891 349.697C317.597 350.984 316.95 352.542 316.95 354.371C316.95 356.2 317.593 357.758 318.881 359.046C320.168 360.333 321.733 360.977 323.576 360.977ZM321.234 356.682C321.867 357.322 322.648 357.642 323.576 357.642C324.477 357.642 325.25 357.322 325.898 356.682C326.545 356.042 326.868 355.272 326.868 354.371C326.868 353.471 326.541 352.697 325.887 352.05C325.233 351.403 324.463 351.079 323.576 351.079C322.648 351.079 321.867 351.396 321.234 352.029C320.601 352.662 320.284 353.443 320.284 354.371C320.284 355.272 320.601 356.042 321.234 356.682Z" fill="#343A40"/>
</g>
</g>
</g>
<defs>
<filter id="filter0_d_0_882" x="0" y="0" width="300" height="275" filterUnits="userSpaceOnUse" color-interpolation-filters="sRGB">
<feFlood flood-opacity="0" result="BackgroundImageFix"/>
<feColorMatrix in="SourceAlpha" type="matrix" values="0 0 0 0 0 0 0 0 0 0 0 0 0 0 0 0 0 0 127 0" result="hardAlpha"/>
<feOffset dy="10"/>
<feGaussianBlur stdDeviation="10"/>
<feColorMatrix type="matrix" values="0 0 0 0 0.311766 0 0 0 0 0.336514 0 0 0 0 0.386011 0 0 0 0.03 0"/>
<feBlend mode="normal" in2="BackgroundImageFix" result="effect1_dropShadow_0_882"/>
<feBlend mode="normal" in="SourceGraphic" in2="effect1_dropShadow_0_882" result="shape"/>
</filter>
<filter id="filter1_d_0_882" x="280" y="0" width="300" height="275" filterUnits="userSpaceOnUse" color-interpolation-filters="sRGB">
<feFlood flood-opacity="0" result="BackgroundImageFix"/>
<feColorMatrix in="SourceAlpha" type="matrix" values="0 0 0 0 0 0 0 0 0 0 0 0 0 0 0 0 0 0 127 0" result="hardAlpha"/>
<feOffset dy="10"/>
<feGaussianBlur stdDeviation="10"/>
<feColorMatrix type="matrix" values="0 0 0 0 0.311766 0 0 0 0 0.336514 0 0 0 0 0.386011 0 0 0 0.03 0"/>
<feBlend mode="normal" in2="BackgroundImageFix" result="effect1_dropShadow_0_882"/>
<feBlend mode="normal" in="SourceGraphic" in2="effect1_dropShadow_0_882" result="shape"/>
</filter>
<filter id="filter2_d_0_882" x="140" y="250" width="300" height="275" filterUnits="userSpaceOnUse" color-interpolation-filters="sRGB">
<feFlood flood-opacity="0" result="BackgroundImageFix"/>
<feColorMatrix in="SourceAlpha" type="matrix" values="0 0 0 0 0 0 0 0 0 0 0 0 0 0 0 0 0 0 127 0" result="hardAlpha"/>
<feOffset dy="10"/>
<feGaussianBlur stdDeviation="10"/>
<feColorMatrix type="matrix" values="0 0 0 0 0.311766 0 0 0 0 0.336514 0 0 0 0 0.386011 0 0 0 0.03 0"/>
<feBlend mode="normal" in2="BackgroundImageFix" result="effect1_dropShadow_0_882"/>
<feBlend mode="normal" in="SourceGraphic" in2="effect1_dropShadow_0_882" result="shape"/>
</filter>
</defs>
</svg>
